<svg id="Capa_1" data-name="Capa 1" xmlns="http://www.w3.org/2000/svg" viewBox="0 0 46.1 46.1"><defs><style>.cls-1{fill:#5b5b5b;}.cls-2{fill:#fff;}</style></defs><title>marker-2</title><rect class="cls-1" x="9" y="9" width="40" height="40" rx="12.63" ry="12.63" transform="translate(-17.96 23.05) rotate(-45)"/><path class="cls-2" d="M33,25a4,4,0,1,0-4,4A4,4,0,0,0,33,25Zm-6,0a2,2,0,1,1,2,2A2,2,0,0,1,27,25Zm2,5c2.67,0,8,1.33,8,4v3H21V34C21,31.33,26.33,30,29,30Zm-6.1,4c0-.64,3.13-2.1,6.1-2.1s6.1,1.46,6.1,2.1v1.1H22.9V34Z" transform="translate(-5.95 -5.95)"/></svg>