<?xml version="1.0" encoding="UTF-8"?>
<svg width="18" height="18" viewBox="0 0 18 18" fill="none" xmlns="http://www.w3.org/2000/svg">
  <path d="M14.1 3H3.9C3.40294 3 3 3.40294 3 3.9V6.6C3.79565 6.6 4.55871 6.91607 5.12132 7.47868C5.68393 8.04129 6 8.80435 6 9.6C6 10.3956 5.68393 11.1587 5.12132 11.7213C4.55871 12.2839 3.79565 12.6 3 12.6V15.3C3 15.7971 3.40294 16.2 3.9 16.2H14.1C14.5971 16.2 15 15.7971 15 15.3V12.6C14.2043 12.6 13.4413 12.2839 12.8787 11.7213C12.3161 11.1587 12 10.3956 12 9.6C12 8.80435 12.3161 8.04129 12.8787 7.47868C13.4413 6.91607 14.2043 6.6 15 6.6V3.9C15 3.40294 14.5971 3 14.1 3Z" stroke="#777E90" stroke-width="1.5" stroke-linecap="round" stroke-linejoin="round"/>
  <path d="M9.75 6.6H9.7575" stroke="#777E90" stroke-width="1.5" stroke-linecap="round" stroke-linejoin="round"/>
  <path d="M8.25 12.6H8.2575" stroke="#777E90" stroke-width="1.5" stroke-linecap="round" stroke-linejoin="round"/>
</svg>
