<?xml version="1.0" encoding="utf-8"?>
<svg xmlns="http://www.w3.org/2000/svg" viewBox="0.409 0.409 23.182 23.182" width="28px" height="28px"><path d="M 12 23.591 C 7.586 23.591 3.748 21.124 1.79 17.493 C 0.909 15.858 0.409 13.988 0.409 12 C 0.409 10.078 0.876 8.265 1.705 6.669 C 3.634 2.95 7.52 0.409 12 0.409 C 14.812 0.409 17.391 1.411 19.398 3.077 L 15.643 6.152 C 14.587 5.491 13.338 5.11 12 5.11 C 8.979 5.11 6.412 7.055 5.482 9.761 C 5.241 10.463 5.11 11.216 5.11 12 C 5.11 12.851 5.264 13.666 5.547 14.418 C 6.525 17.031 9.045 18.89 12 18.89 C 13.27 18.89 14.459 18.547 15.48 17.948 L 15.48 17.947 C 16.836 17.153 17.895 15.909 18.453 14.42 L 12.255 14.42 L 12.255 9.834 L 23.388 9.834 C 23.521 10.535 23.591 11.26 23.591 12 C 23.591 12.829 23.503 13.639 23.337 14.42 C 22.773 17.077 21.299 19.397 19.256 21.039 C 17.27 22.636 14.747 23.591 12 23.591 Z" fill="#555555" style="" id="object-0" transform="matrix(0.9999999999999999, 0, 0, 0.9999999999999999, 0, -4.440892098500626e-16)"/></svg>