<svg width="360" height="262" viewBox="0 0 360 262" fill="none" xmlns="http://www.w3.org/2000/svg">
<rect width="360" height="262" fill="#B1B5C4"/>
<path d="M244.188 76.6875H115.812C113.081 76.6875 110.875 78.8939 110.875 81.625V180.375C110.875 183.106 113.081 185.312 115.812 185.312H244.188C246.919 185.312 249.125 183.106 249.125 180.375V81.625C249.125 78.8939 246.919 76.6875 244.188 76.6875ZM153.152 98.9062C158.599 98.9062 163.027 103.335 163.027 108.781C163.027 114.228 158.599 118.656 153.152 118.656C147.706 118.656 143.277 114.228 143.277 108.781C143.277 103.335 147.706 98.9062 153.152 98.9062ZM232.446 166.349C232.221 166.538 231.937 166.642 231.643 166.643H128.341C127.663 166.643 127.107 166.087 127.107 165.408C127.107 165.115 127.215 164.837 127.4 164.606L153.677 133.438C154.109 132.913 154.896 132.852 155.421 133.284C155.467 133.33 155.529 133.376 155.575 133.438L170.912 151.645L195.306 122.714C195.738 122.19 196.525 122.128 197.05 122.56C197.096 122.606 197.158 122.653 197.204 122.714L232.631 164.621C233.032 165.13 232.97 165.917 232.446 166.349Z" fill="#FCFCFD"/>
</svg>
