<svg width="64" height="16" viewBox="0 0 64 16" fill="none" xmlns="http://www.w3.org/2000/svg">
<path d="M28.4443 1.71094H35.4443V14.2887H28.4443V1.71094Z" fill="#555555"/>
<path d="M28.8889 8C28.8889 5.44444 30.0889 3.17778 31.9333 1.71111C30.5778 0.644447 28.8667 0 27 0C22.5778 0 19 3.57778 19 8C19 12.4222 22.5778 16 27 16C28.8667 16 30.5778 15.3556 31.9333 14.2889C30.0889 12.8444 28.8889 10.5556 28.8889 8Z" fill="#555555"/>
<path d="M44.8894 8C44.8894 12.4222 41.3116 16 36.8894 16C35.0227 16 33.3116 15.3556 31.9561 14.2889C33.8227 12.8222 35.0005 10.5556 35.0005 8C35.0005 5.44444 33.8005 3.17778 31.9561 1.71111C33.3116 0.644447 35.0227 0 36.8894 0C41.3116 0 44.8894 3.6 44.8894 8Z" fill="#555555" fill-opacity="0.619608"/>
</svg>