<svg width="64" height="16" viewBox="0 0 64 16" fill="none" xmlns="http://www.w3.org/2000/svg">
<g clip-path="url(#clip0_457_1946)">
<path d="M29.896 13.0728H27.2109L28.8904 2.68829H31.5754L29.896 13.0728Z" fill="#555555"/>
<path d="M39.6298 2.94211C39.1002 2.73199 38.2601 2.5 37.2214 2.5C34.5698 2.5 32.7026 3.91399 32.6911 5.93556C32.6691 7.42707 34.028 8.25549 35.0444 8.75281C36.0832 9.26099 36.4363 9.59269 36.4363 10.0457C36.4258 10.7413 35.5969 11.062 34.8238 11.062C33.7518 11.062 33.1774 10.8967 32.3045 10.5096L31.9509 10.3437L31.5752 12.6748C32.205 12.9617 33.3652 13.2163 34.5698 13.2275C37.3872 13.2275 39.2214 11.8354 39.2432 9.68108C39.2539 8.49894 38.5363 7.59314 36.9893 6.85296C36.0502 6.37782 35.475 6.05743 35.475 5.57127C35.486 5.12931 35.9615 4.67663 37.0216 4.67663C37.8945 4.65446 38.5359 4.86428 39.0217 5.07425L39.2646 5.18452L39.6298 2.94211Z" fill="#555555"/>
<path d="M43.1982 9.39393C43.4194 8.79736 44.2703 6.48843 44.2703 6.48843C44.2591 6.51061 44.4909 5.88085 44.6235 5.49424L44.8112 6.38903C44.8112 6.38903 45.3197 8.87474 45.4301 9.39393H43.1982ZM46.5127 2.68829H44.4357C43.7953 2.68829 43.3087 2.87594 43.0323 3.5499L39.0439 13.0726H41.8613C41.8613 13.0726 42.3252 11.791 42.4249 11.5149H45.8723C45.9494 11.8795 46.1927 13.0726 46.1927 13.0726H48.6789L46.5127 2.68829Z" fill="#555555"/>
<path d="M24.9682 2.68829L22.3386 9.76953L22.0512 8.33337C21.565 6.67623 20.0403 4.87579 18.3389 3.98056L20.7475 13.0618H23.5869L27.8074 2.68829H24.9682Z" fill="#555555"/>
<path d="M19.8965 2.68829H15.5764L15.5322 2.89812C18.9022 3.75987 21.134 5.83709 22.0509 8.33381L21.1118 3.56121C20.9572 2.89797 20.4821 2.71017 19.8965 2.68829Z" fill="#555555"/>
</g>
<defs>
<clipPath id="clip0_457_1946">
<rect width="33.2121" height="10.7275" fill="white" transform="translate(15.5 2.5)"/>
</clipPath>
</defs>
</svg>