<svg width="77" height="65" viewBox="0 0 77 65" fill="none" xmlns="http://www.w3.org/2000/svg">
<path d="M74.1958 0.53125H3.67081C2.17046 0.53125 0.958313 1.82998 0.958313 3.4375V61.5625C0.958313 63.17 2.17046 64.4688 3.67081 64.4688H74.1958C75.6962 64.4688 76.9083 63.17 76.9083 61.5625V3.4375C76.9083 1.82998 75.6962 0.53125 74.1958 0.53125ZM24.1841 13.6094C27.1763 13.6094 29.6091 16.2159 29.6091 19.4219C29.6091 22.6278 27.1763 25.2344 24.1841 25.2344C21.1919 25.2344 18.7591 22.6278 18.7591 19.4219C18.7591 16.2159 21.1919 13.6094 24.1841 13.6094ZM67.7452 53.3069C67.6217 53.4181 67.4656 53.4791 67.3044 53.4795H10.5538C10.1808 53.4795 9.87566 53.1525 9.87566 52.7529C9.87566 52.5804 9.93499 52.4169 10.0367 52.2807L24.4723 33.935C24.7096 33.6262 25.1419 33.5898 25.4302 33.8441C25.4556 33.8714 25.4895 33.8986 25.5149 33.935L33.9406 44.6518L47.3421 27.6229C47.5794 27.3142 48.0117 27.2778 48.2999 27.5321C48.3253 27.5594 48.3593 27.5866 48.3847 27.6229L67.8469 52.2897C68.0673 52.5895 68.0334 53.0526 67.7452 53.3069Z" fill="#FCFCFD"/>
</svg>
