<?xml version="1.0" encoding="utf-8"?>
<!-- Generator: Adobe Illustrator 19.2.1, SVG Export Plug-In . SVG Version: 6.00 Build 0)  -->
<svg version="1.1" id="Capa_1" xmlns="http://www.w3.org/2000/svg" xmlns:xlink="http://www.w3.org/1999/xlink" x="0px" y="0px"
	 viewBox="0 0 28 24" style="enable-background:new 0 0 28 24;" xml:space="preserve">
<style type="text/css">
	.st0{display:none;}
	.st1{display:inline;fill:#7A869A;}
	.st2{fill:#777E92;}
</style>
<g class="st0">
	<path class="st1" d="M8.8,21.9c0-1.2,0.9-2.1,2.1-2.1s2.1,0.9,2.1,2.1S12,24,10.9,24S8.8,23,8.8,21.9L8.8,21.9z"/>
	<path class="st1" d="M20.2,21.9c0-1.2,0.9-2.1,2.1-2.1c1.2,0,2.1,0.9,2.1,2.1S23.5,24,22.3,24C21.2,24,20.2,23,20.2,21.9L20.2,21.9
		z"/>
	<path class="st1" d="M1.5,1.1c0-0.6,0.5-1,1-1h4.2c0.5,0,0.9,0.3,1,0.8l0.9,4.4h16.8c0.6,0,1,0.5,1,1c0,0.1,0,0.1,0,0.2l-1.7,8.8
		c-0.3,1.5-1.6,2.5-3.1,2.5H11.6c-1.5,0-2.8-1-3.1-2.5l0,0L6.7,6.5V6.4L5.8,2.1H2.5C2,2.1,1.5,1.6,1.5,1.1C1.5,1.1,1.5,1.1,1.5,1.1z
		 M9,7.3l1.5,7.5c0.1,0.5,0.5,0.8,1,0.8h10.2c0.5,0,1-0.3,1.1-0.8l1.4-7.5H9z"/>
</g>
<g>
	<path class="st2" d="M14,13.1c-4.2,0-7.6,3.4-7.6,7.6v2.2c0,0.6-0.5,1.1-1.1,1.1c-0.6,0-1.1-0.5-1.1-1.1v-2.2
		c0-5.4,4.4-9.8,9.8-9.8c5.4,0,9.8,4.4,9.8,9.8v2.2c0,0.6-0.5,1.1-1.1,1.1c-0.6,0-1.1-0.5-1.1-1.1v-2.2C21.6,16.5,18.2,13.1,14,13.1
		z"/>
	<path class="st2" d="M14,0C10.4,0,7.5,3,7.5,6.6c0,3.6,2.9,6.5,6.5,6.5s6.5-2.9,6.5-6.5C20.5,3,17.6,0,14,0z M14,10.9
		c-2.4,0-4.3-2-4.3-4.3c0-2.4,1.9-4.4,4.3-4.4s4.3,2,4.3,4.4C18.3,9,16.4,10.9,14,10.9z"/>
</g>
</svg>
